<?xml version="1.0" encoding="utf-8"?>
<!-- Generator: Adobe Illustrator 21.1.0, SVG Export Plug-In . SVG Version: 6.00 Build 0)  -->
<svg version="1.1" id="Capa_1" xmlns="http://www.w3.org/2000/svg" xmlns:xlink="http://www.w3.org/1999/xlink" x="0px" y="0px"
	 viewBox="0 0 512 512" style="enable-background:new 0 0 512 512;" xml:space="preserve">
<style type="text/css">
	.st0{fill:#282828;}
</style>
<g>
	<g>
		<path class="st0" d="M469.5,73.4l-37.2-8.3V39c0-4.2-3.4-7.5-7.5-7.5h-36.6L383,6.9c-0.9-4-4.9-6.7-8.9-5.8L256.9,26.2L140,0.2
			c-4.1-0.9-8.1,1.7-9,5.7l-5.7,25.6H87.2c-4.2,0-7.5,3.4-7.5,7.5v25.1l-35.7,7.7c-4,0.9-6.6,4.9-5.8,8.9l37.4,174.6L36.8,429.6
			c-0.9,4.1,1.7,8.1,5.7,9l37.2,8.3V473c0,4.2,3.4,7.5,7.5,7.5h36.6l5.3,24.6c0.9,4,4.9,6.7,8.9,5.8c0,0,115.9-24.9,116.5-25.2
			L372,511.8c4,0.9,8.1-1.7,9-5.7l5.7-25.6h38.1c4.2,0,7.5-3.4,7.5-7.5v-25.1l35.7-7.7c4-0.9,6.6-4.9,5.8-8.9l-37.4-174.6
			l38.7-174.3C476.1,78.4,473.6,74.3,469.5,73.4z M79.7,431.4l-26.5-5.9l26.5-119.4V431.4z M79.7,202.7L54.5,84.9l25.2-5.4
			L79.7,202.7L79.7,202.7z M369.8,17.4l3,14.1h-68.6L369.8,17.4z M144,16.5l67.2,14.9h-70.5L144,16.5z M142.2,494.6l-3-14.1h68.6
			L142.2,494.6z M368,495.5l-67.2-14.9h70.5L368,495.5z M417.3,465.5H94.7v-419h322.5V465.5z M457.5,427.1l-25.2,5.4V309.3
			L457.5,427.1z M432.3,205.9V80.6l26.5,5.9L432.3,205.9z"/>
	</g>
</g>
<g>
	<g>
		<path class="st0" d="M361.9,328.3l20.7-27.6c1.7-2.3,2-5.3,0.7-7.9c-1.3-2.6-3.9-4.2-6.7-4.2h-39.9c-4.2,0-7.5,3.4-7.5,7.5
			s3.4,7.5,7.5,7.5h24.8l-15.1,20.1c-2,2.7-2,6.4,0,9l15.1,20.1h-211l15.1-20.1c2-2.7,2-6.4,0-9l-15.1-20.1h150.7
			c4.2,0,7.5-3.4,7.5-7.5s-3.4-7.5-7.5-7.5H135.4c-6.1,0-9.7,7.2-6,12.1l20.7,27.6L129.4,356c-3.7,4.9-0.1,12.1,6,12.1h241.1
			c6.1,0,9.7-7.2,6-12.1L361.9,328.3z"/>
	</g>
</g>
<g>
	<g>
		<path class="st0" d="M352.5,385.1H159.6c-4.2,0-7.5,3.4-7.5,7.5s3.4,7.5,7.5,7.5h192.9c4.2,0,7.5-3.4,7.5-7.5
			S356.6,385.1,352.5,385.1z"/>
	</g>
</g>
<g>
	<g>
		<path class="st0" d="M352.5,417.3H159.6c-4.2,0-7.5,3.4-7.5,7.5s3.4,7.5,7.5,7.5h192.9c4.2,0,7.5-3.4,7.5-7.5
			S356.6,417.3,352.5,417.3z"/>
	</g>
</g>
<g>
	<g>
		<path class="st0" d="M333.5,89.1c-10.8-9-23.6-13.4-37.1-12.6c-13.4,0.8-27,6.5-40.4,17c-13.4-10.5-27-16.2-40.4-17
			c-13.5-0.8-26.3,3.6-37.1,12.6c-24.1,20.2-32.1,57.9-17.4,82.4c25.8,43,88.3,81.3,91,82.9c2.4,1.4,5.5,1.4,7.8,0
			c2.6-1.6,65.2-40,91-82.9C365.6,147,357.6,109.2,333.5,89.1z M338,163.7c-20.3,33.9-68,66.3-82,75.3c-14-9-61.6-41.4-81.9-75.3
			c-10.9-18.2-4.3-47.7,14.1-63.1c7.4-6.2,15.6-9.2,24.3-9.2c12.1,0,25.2,5.9,38.6,17.6c2.8,2.5,7.1,2.5,9.9,0
			c22.9-20.1,45.3-23,62.9-8.3C342.3,116,348.9,145.5,338,163.7z"/>
	</g>
</g>
</svg>
