<?xml version="1.0" encoding="utf-8"?>
<!-- Generator: Adobe Illustrator 21.1.0, SVG Export Plug-In . SVG Version: 6.00 Build 0)  -->
<svg version="1.1" id="Camada_1" xmlns="http://www.w3.org/2000/svg" xmlns:xlink="http://www.w3.org/1999/xlink" x="0px" y="0px"
	 viewBox="0 0 480 480" style="enable-background:new 0 0 480 480;" xml:space="preserve">
<style type="text/css">
	.st0{fill:#282828;}
</style>
<path class="st0" d="M40,239.8c-4.4,0-8,3.6-8,8v32c0,4.4,3.6,8,8,8s8-3.6,8-8v-32C48,243.4,44.4,239.8,40,239.8z"/>
<path class="st0" d="M202.5,257c-4.2-1.4-8.7,0.9-10.1,5.1c-7,20.9-28.7,26.5-40.4,26.5c-22.1,0-40-17.9-40-40
	c0-7.4,1.9-32.2,26.5-40.4c4.2-1.4,6.5-5.9,5.1-10.1c-1.4-4.2-5.9-6.5-10.1-5.1c-23.4,8.3-38.6,30.8-37.5,55.6c0,30.9,25.1,56,56,56
	c24.6,0.7,47-14.4,55.6-37.5C209,262.9,206.7,258.4,202.5,257z"/>
<path class="st0" d="M248,256.6h-16c-4.4,0-8,3.6-8,8s3.6,8,8,8h16c4.4,0,8-3.6,8-8S252.4,256.6,248,256.6z"/>
<path class="st0" d="M296,256.6h-16c-4.4,0-8,3.6-8,8s3.6,8,8,8h16c4.4,0,8-3.6,8-8S300.4,256.6,296,256.6z"/>
<path class="st0" d="M328,272.6h16c4.4,0,8-3.6,8-8s-3.6-8-8-8h-16c-4.4,0-8,3.6-8,8S323.6,272.6,328,272.6z"/>
<path class="st0" d="M376,272.6h16c4.4,0,8-3.6,8-8s-3.6-8-8-8h-16c-4.4,0-8,3.6-8,8S371.6,272.6,376,272.6z"/>
<path class="st0" d="M392,319.8c-4.4,0-8,3.6-8,8v56h-64c-4.4,0-8,3.6-8,8s3.6,8,8,8h72c4.4,0,8-3.6,8-8v-64
	C400,323.4,396.4,319.8,392,319.8z"/>
<path class="st0" d="M288,383.8h-8c-4.4,0-8,3.6-8,8s3.6,8,8,8h8c4.4,0,8-3.6,8-8S292.4,383.8,288,383.8z"/>
<path class="st0" d="M456,95.8H354.5c7.6-11.9,5.5-27.4-4.9-36.9C343,52,333.8,48,324.1,48c-9.6,0-18.9,3.8-25.6,10.7l-39.6,37.1H24
	c-13.3,0-24,10.7-24,24v288c0,13.3,10.7,24,24,24h432c13.3,0,24-10.7,24-24v-288C480,106.6,469.3,95.8,456,95.8z M309.7,70.2
	c3.8-3.9,8.9-6.1,14.3-6.1s10.6,2.2,14.3,6.1c3,2.6,4.7,6.4,4.7,10.3c0,4-1.7,7.7-4.7,10.3l-7.3,7.3L216,213.2l-28.5-28.5
	L309.7,70.2z M201.6,221.4l-35.9,13.4l13.5-35.9L201.6,221.4z M24,415.8c-4.4,0-8-3.6-8-8v-288c0-4.4,3.6-8,8-8h40v304H24z
	 M80,415.8v-304h161.9l-71.3,66.9c-0.1,0.1-0.1,0.2-0.1,0.2c-0.6,0.6-1.1,1.3-1.5,2.1c-0.1,0.2-0.2,0.3-0.2,0.4
	c-0.1,0.1-0.1,0.2-0.1,0.3l-24,64c-1.1,2.9-0.4,6.3,1.8,8.5c2.2,2.2,5.5,2.9,8.5,1.8l64-24l0.1-0.1c0.1,0,0.2-0.1,0.3-0.1
	c0.8-0.4,1.5-0.9,2.2-1.5c0.1-0.1,0.2-0.1,0.3-0.2L340,111.8h76v304H80z M464,407.8c0,4.4-3.6,8-8,8h-24v-304h24c4.4,0,8,3.6,8,8
	V407.8z"/>
</svg>
